<?xml version="1.0" encoding="UTF-8"?>
<svg id="Layer_2" data-name="Layer 2" xmlns="http://www.w3.org/2000/svg" viewBox="0 0 331.38 250.75">
  <g id="Layer_1-2" data-name="Layer 1">
    <g>
      <path d="M10.36,150.5c7.38.32,14.47,2.9,18.62,9.27,1.81,2.78,3.6,8.13,4.65,11.41.16.51.63.77.02,1.21-2.24,1.28-10.35-2.52-12.58-3.9-6.08-3.78-10.73-10.65-10.71-17.98ZM29.62,168.96c-1.72-7.43-7.2-13.92-15.24-14.44,1.99,7.17,8.18,12.5,15.24,14.44Z"/>
      <polygon points="210.19 81.49 210.19 103.96 121.11 104.36 121.11 81.49 210.19 81.49"/>
      <path d="M213.8,89.92c7.33-.21,14.45-4.6,17.2-11.49,5.62-14.11-9.85-20.12,1.73-36.39,11.54-16.22,48.51-27.66,67.34-33.38,9.95-3.02,20.01-5.83,30.07-8.45.36-.09,1.2-.44,1.23.03-1.33,6.22-7.21,10.85-12.7,13.38-18.98,8.76-42.82,12.04-61.14,22.32-5.87,3.29-11.73,8.25-13.44,15.05s.35,16.98-.2,24.27c-1.23,16.32-14.42,27.8-30.09,29.9v-15.25Z"/>
      <path d="M117.5,89.92v14.65c0,.14,1.04.76-.2.6-14.84-1.9-28.69-14.67-29.89-29.9-1.33-16.86,5.77-28.25-12.18-38.78C57.06,25.81,31.71,22.51,12.63,13.62,8.38,11.64,3.42,7.97,1.2,3.77.93,3.25-.82-.16.46.09c8.56,1.7,18.3,4.85,26.75,7.36,14.76,4.4,30.45,9.33,44.41,15.78,11.48,5.31,29.93,14.82,31.73,28.86.88,6.86-3.89,12.22-4.3,18.76-.68,10.69,8.36,18.26,18.45,19.06Z"/>
      <path d="M170.87,107.57c-.57,3.21-.49,6.57-.42,9.85.02,1.05.42,2.03.44,3.17.33,19.48.02,39.08-.41,58.52l-4.68,3.86-4.96-3.58v-71.83h10.03Z"/>
      <path d="M157.23,107.57v69.42c-3-1.83-6.51-2.76-10.03-2.81v-66.61h10.03Z"/>
      <path d="M184.11,107.57v66.01l-.67.54c-3.27.13-6.42,1.17-9.36,2.47v-69.02h10.03Z"/>
      <path d="M143.98,107.57v66.01c-.3.41-.35.44-.82.44-3.1,0-6.28-.49-9.21-1.44v-65.01h10.03Z"/>
      <path d="M197.75,107.57l-.38,64.74c-2.87,1.83-6.51,1.01-9.65,1.87v-66.61h10.03Z"/>
      <path d="M130.74,170.97c-3.4-1.52-6.55-5.29-7.93-8.72-.49-1.22-1.7-5.21-1.7-6.32v-48.35h8.63c.14,0,.45-.71,1,.2v63.2Z"/>
      <path d="M210.19,107.57v48.35c0,.75-.89,3.89-1.19,4.83-1.41,4.32-4.24,7.81-8.04,10.22v-63.8c.29-.11.48.4.6.4h8.63Z"/>
      <path d="M154.01,191.04c-.22,2.28.31,4.39,1.51,6.33-2.84,11.57-4.15,25.38-7.64,36.69-.89,2.88-4.72,11.84-8.73,8.15-4.03-3.7-1.6-15.96-.27-20.77,2.76-9.96,8.14-19.73,11.88-29.36l3.25-1.05Z"/>
      <path d="M177.29,191.03l3.17,1.44c4.01,9.55,9.16,19.38,11.96,29.37,1.2,4.28,4.63,19.52-1.48,21.19-4.04,1.1-7.25-7.66-8.01-10.5-3.02-11.33-4.48-23.42-7.17-34.78,1.23-2.16,1.81-4.2,1.53-6.72Z"/>
      <path d="M167.26,199.06c1.78.76,3.14,1.5,5.2,1.22,1.52,7.35,3.75,14.58,5.11,21.97,1.29,6.95,3.34,18.82.19,25.23-3.74,7.6-8.13-.13-9.41-4.77-.3-1.07-1.09-4.43-1.09-5.33v-38.32Z"/>
      <path d="M164.05,199.06c-.32,9.43-.43,18.83-.42,28.31.01,6.55,1.1,13.53-2.47,19.56-2.35,3.98-4.53,5.68-7.21.95-4.28-7.58-1.07-21.67.66-29.97,1.24-5.92,2.96-11.74,4.22-17.65,2.09.96,3.38-.58,5.21-1.2Z"/>
      <path d="M186.92,183.81l11.7,20.19c3.81,7.83,9.21,16.59,7.92,25.71-.65,4.58-4.77,1.63-6.59-.56-4.17-5.02-9.47-22.19-12.45-29.28-1.25-2.98-2.68-5.89-4.04-8.82,1.61-2.24,3.21-4.33,3.45-7.24Z"/>
      <path d="M143.99,183.41l1.85,4.77,2.1,2.65c-1.6,2.74-2.9,5.72-4.14,8.64-2.95,6.98-8.31,24.61-12.26,29.47-1.79,2.2-5.92,5.22-6.72.72-1.43-8.05,4.51-19.13,8.12-26.2,3.46-6.79,7.58-13.27,11.05-20.05Z"/>
      <path d="M55.7,40.96c-9.01-2.86-18.24-5.27-27.19-8.32-7.78-2.65-15.98-6.01-16.94-15.35l40.93,13.43c.51,1.79.56,3.46,1.09,5.33.54,1.9,1.48,3.14,2.11,4.91Z"/>
      <path d="M275.6,40.56c2.19-2.87,2.78-6.15,3.05-9.67,12.43-4.19,24.98-8.02,37.39-12.29,1.05-.36,2.16-1.03,3.1-1.33.31-.1.94-.69.99.21.08,1.48-2.38,6.1-3.43,7.4-5.42,6.67-24.78,11.38-33.47,13.88-1.06.3-7.18,2.13-7.62,1.8Z"/>
      <path d="M307.7,34.94c.16,9.07-7.72,12.48-15.16,14.73-2.49.76-21.23,5.59-22.16,4.93,1.35-2.67,2.3-6.07,1.66-9l35.66-10.66Z"/>
      <path d="M60.92,54.6c-7.21-1.47-14.65-2.88-21.75-4.93-7.67-2.21-15.56-5.33-15.56-14.73l35.32,10.23c.78.65.26,2.93.4,4.01.26,2.05.87,3.54,1.6,5.42Z"/>
      <path d="M64.13,67.84c-5.19-.73-10.55-1.44-15.65-2.6-7.46-1.7-15.09-4.03-14.04-13.45l28.5,7,1.19,9.04Z"/>
      <path d="M297.27,51.8c.32,15.56-19.72,12.94-30.09,16.45,1.42-3.09.41-6.42,1.19-9.44l28.91-7Z"/>
      <path d="M290.85,66.64c.81,6.42-1.89,10.53-8.1,12.16-2.01.52-17.6,2.44-18.38,1.88.36-1.06.72-2.29.79-3.41.08-1.19-.51-4.89,0-5.22l25.69-5.41Z"/>
      <path d="M66.13,71.86c.11,2.05-.14,4.17,0,6.22.09,1.21,1.16,2.33.21,3-9.79-1.93-27.41.73-25.49-14.43,8.09,2.94,16.83,3.68,25.27,5.22Z"/>
      <path d="M86.2,209.89c-.96.22-.65-.16-.89-.52-2.29-3.36-4.38-6.78-9.13-6.3.17-1.47,1.85-1.94,2.43-3.38.29-.73.74-2.34,0-2.87-1.96-1.4-3.13,3.25-5.14,3.74-4.95,1.19-4.85-7.2-.22-8.24,5.33-1.2,5.29,2.83,9.01,4.06,5.27,1.74,10.62-1.29,14.74-4.38,1.01-.76,5.07-4.14,5.46-4.99.44-.95-.11-1.51-.21-2.39l2.4-.4c-.74,2.53-.22,4.81.64,7.23l-18.29,11.03c-.93,2.35-.82,4.94-.81,7.42Z"/>
      <path d="M280.82,95.53c1.05,16.72-17.18,8.6-26.51,6.58-.99-4.47,2.61-4.05,5.13-6.49,7.12.03,14.3.87,21.38-.09Z"/>
      <path d="M76.91,98.81l-.17,3.59c-5.53.86-14.14,4.27-19.59,3.53-5.05-.68-7.36-5.73-6.65-10.4,6.94.69,14.09.59,21.05,0l5.37,3.27Z"/>
      <path d="M214.75,124.28c1.77,1.62,3.63,2.72,6.08,2.95,1.07.1,3.78-.37,4.32-.03.4.25.62,1.04,1.07,1.45,1.45,1.33,2.93,2.74,4.43,4.01,1.07.91,6.36,4.57,6.64,5.01.74,1.16-1.44,3.69-2.49,4.34-5.93,3.68-12.35-3.99-15.99-7.95-3.16-3.44-6.03-5.66-5.01-10.84.56.04.61.76.94,1.06Z"/>
      <path d="M70.15,92.32c-4.43.38-9.41.73-13.86.42-6.72-.46-11.94-3.23-10.21-10.85l22.6,2.88c1.24.77.33,5.8,1.47,7.56Z"/>
      <path d="M261.16,92.32c1.12-2.6.42-5.34,1.18-7.85,7.62-.89,15.44-.73,22.89-2.59,2.5,14.4-15.33,10.35-24.07,10.43Z"/>
      <path d="M117.9,123.63c-.86,1.5,0,3.27-.62,4.8-.28.7-3.59,4.36-4.39,5.24-3.95,4.36-12.62,14.25-18.04,6.39-.37-.54-1.22-1.8-.86-2.38.18-.29,4.73-3.26,5.64-4.02,1.25-1.04,5.94-5.89,6.64-6.2,1.4-.63,4.33.04,6.34-.48,2.27-.59,3.3-2.53,5.29-3.33Z"/>
      <path d="M87.4,113.99c.71,2.74,2.91,4.46,5.21,5.82-6.96,4.3-23.12,15.81-24.07.2,6.52-.84,12.66-3.96,18.85-6.02Z"/>
      <path d="M272.79,109.58c-1.84,15.19-19.26,3.24-27.69,1.6l5.58-2.64,2.48-3.35,19.63,4.39Z"/>
      <path d="M86.6,110.79l-19.1,6.37c-4.97.91-8.87-2.4-9.01-7.36l19.11-4.21c.85.05,2.42,2.69,3.65,3.52,1.45.98,3.59,1.77,5.35,1.68Z"/>
      <path d="M263.16,120.42c-2.26,15.24-17.17,3.27-24.48-.61,2.42-1.57,4.42-3.03,5.45-5.85l19.02,6.46Z"/>
      <path d="M247.11,61.02v-7.02c0-.17.45-1.27.69-1.41l20.38-6.41c1.92,12.52-12.35,12.95-21.07,14.84Z"/>
      <path d="M84.2,61.02c-.62.66-15.79-3.87-17.4-4.87-2.66-1.65-4.26-6.35-3.87-9.38.07-.54-.22-.73.55-.55l20.71,6.98v7.82Z"/>
      <path d="M102.65,125.63c.38.52-2.62,3.28-3.2,3.81-3.71,3.42-11.72,10.43-16.67,5.82-.79-.74-2.81-4.64-1.8-5.42.93-.72,4.8-2.12,6.29-2.94,3.3-1.83,6.5-3.94,9.63-6.05l.54.14c1.25,2.1,2.6,4.18,5.21,4.64Z"/>
      <path d="M250.7,129.66c.25,1.9-.47,3.85-1.78,5.21-6.05,6.31-15.74-4.88-20.27-8.64,1.65-1.01,2.93-1.92,4.18-3.43.51-.62.64-2.03,1.56-1.94,5.36,2.86,10.37,7.39,16.3,8.8Z"/>
      <path d="M82.99,48.98c-9.27-4.1-25.71-3.67-26.48-16.85,9.5,3.76,21.42,7.17,26.48,16.85Z"/>
      <path d="M118.7,160.14l1.82,6.41c-3.98,3.42-7.71,7.9-11.66,11.24-.97.82-5.88,4.69-7.02,3.85-.48-.43-.44-1.03-.41-1.62.21-4.76,8.81-13.75,12.45-16.87.69-.59,4.17-3.56,4.82-3Z"/>
      <path d="M248.32,49.39c-.76-.8,4.44-5.98,5.21-6.63,6.03-5.11,14.07-7.67,21.27-10.63-.65,13.33-17.34,12.54-26.48,17.25Z"/>
      <path d="M208.38,169.04l14.43,13.59c1.13,2.07,1.51,4.85,0,6.8-2.57.56-16.79-13.53-19.44-15.85l5-4.54Z"/>
      <path d="M229.85,181.8c-7.98-2.25-12.74-10.32-19.07-15.26l1.82-6.41c.64-.54,4.85,3.12,5.62,3.81,4.92,4.34,11.42,10.97,11.63,17.86Z"/>
      <path d="M113.49,107.17c-6.01,5.79-19.21,17.37-23.68,3.82,2.15-.72,4.38-1.14,6.53-1.92,1.9-.69,7.42-3.68,8.62-3.84,1.9-.25,6.22,2.41,8.54,1.94Z"/>
      <path d="M127.93,172.98c.14.64-.23.82-.59,1.21-2.69,2.91-7.74,7.45-10.86,10.01-2.61,2.13-5.32,4.25-8.61,5.23-.37-2.58-.68-4.68.8-7.03,4.42-4.15,8.82-8.32,13.27-12.44.25-.23.35-.66.39-1l5.61,4.02Z"/>
      <path d="M241.49,110.78c-3.56,12.39-14.73,4.31-20.87-1l-2.4-2.61c2.46.14,5.45-1.81,7.78-1.59,2.03.19,7.5,3.19,10.07,4.01,1.77.56,3.6.91,5.43,1.19Z"/>
      <path d="M83.79,64.23v8.83c-8.54-.66-18.79-1.95-16.66-13.24,5.35,2.02,10.98,3.61,16.66,4.41Z"/>
      <path d="M247.51,64.64l16.27-4.41c.81-.1.51.02.59.58.27,1.99,0,4.59-.78,6.45-2.03,4.78-11.64,4.97-16.07,6.2v-8.83Z"/>
      <path d="M101.85,102.76c-.21.6-1.54,1-2.14,1.27-7.25,3.21-18.67,7.44-19.53-4.48,4.94.15,9.85-.69,14.59-1.93,2.17,1.82,4.38,4.2,7.07,5.14Z"/>
      <path d="M216.61,193.44c-7.2-.58-13.34-5.98-17.64-11.45-.54-.68-4.08-5.39-3.62-5.81,1.87.36,3.79-1.4,5.43-.43,2.41,2.11,4.62,4.52,7,6.65,3.67,3.29,8.43,5.5,8.83,11.03Z"/>
      <path d="M135.96,176.59c-4.71,7.05-11.97,16.6-21.27,16.44.12-4.93,5.8-7.92,9.24-11.03,1.95-1.76,3.82-4.24,5.82-5.81,2.54-1.98,3.35-.07,6.21.39Z"/>
      <path d="M251.12,99.55c-1.14,12.85-13.67,6.89-21.26,4.01l7.04-5.62c4.73.61,9.41,1.87,14.22,1.62Z"/>
      <path d="M213.8,107.97c4.99,4.53,10.06,9.39,16.46,11.84-2.24,5.34-8.7,4.87-12.82,1.97-.81-.57-3.64-3.58-3.64-4.39v-9.43Z"/>
      <path d="M84.16,76.71l2.04,8.39c-3.76-.39-11.63-.51-14.59-2.86-1.73-1.38-2.7-6.33-1.86-8.37,4.63,1.6,9.58,2.08,14.4,2.85Z"/>
      <path d="M117.5,117.8c-.04.16-1.31,1.68-1.59,2.02-3.71,4.46-11.95,6.51-14.47,0,5.49-2.56,10.36-6.42,14.89-10.43.41-.37.77-.85.79-1.43,1.12.31.39.78.39,1,0,2.03.4,7.3,0,8.83Z"/>
      <path d="M245.1,85.1l2.08-8.35c4.8-.84,9.79-1.07,14.37-2.88,1.77,11.35-8.48,10.33-16.45,11.23Z"/>
      <path d="M145.59,28.52c-6.45-1.14-12.92-1.88-19.27.2.67-5.38,3.35-8.94,9.02-9.44,7.32-.65,7.24,4.04,10.25,9.24Z"/>
      <path d="M72.96,86.71c4.63,1.17,9.4,1.72,14.18,1.67l4.67,6.16c0,.53-5.71,1.36-6.6,1.42-7.41.48-12.1-.87-12.25-9.24Z"/>
      <path d="M258.34,86.71c-.14,8.01-4.65,9.66-11.85,9.24-.9-.05-7-.85-7-1.42l4.69-6.23c4.79.27,9.51-.56,14.16-1.6Z"/>
      <path d="M157.63,181c.24-.3,2.86,1.9,3.21,2.2.53.46,2.59,2.38,2.83,2.79,1.45,2.53-.2,13.14-4.16,11.02-4.2-2.25-2.24-12.13-1.88-16.01Z"/>
      <path d="M173.67,181c.24,3.5,2.15,13.52-1.37,15.68-4.56,2.79-5.57-7.07-5.03-9.85.29-1.5,4.85-5.04,6.41-5.83Z"/>
      <path d="M213.8,146.09v-12.44l10.02,10.23c-2.98,2.83-6.1,3.07-10.02,2.21Z"/>
      <path d="M117.5,146.09c-3.72.83-6.64.59-9.66-1.84l.41-1.19,9.25-9.81v12.84Z"/>
      <path d="M184.51,177.39c.01,2.58-.23,6.08-1.4,8.43-3.88,7.77-6.43-3.33-6.63-6.82l8.03-1.61Z"/>
      <path d="M154.36,179.05c.61,4.26-3.13,14.29-6.48,5.88-.48-1.2-2.15-7.34-.27-7.37.91-.01,6.41.97,6.75,1.49Z"/>
      <path d="M74.86,206.78c5.28-.92,5.53,6.22.53,7.36-6.13,1.39-4.66-6.64-.53-7.36Z"/>
      <polygon points="153.21 78.28 141.98 78.28 145.86 76.34 150.8 73.06 153.21 78.28"/>
      <path d="M176.09,78.28c-.41-.36,2.95-4.08,2.41-5.22l2.68,1.93,6.14,3.29h-11.24Z"/>
      <path d="M64.6,205.14c2.95-1.07,3.6-3.77,6.76-1.06-1.65,3.88-6.68,8.42-6.76,1.06Z"/>
      <path d="M64.03,195.91c.87-.16,1.69.1,2.31.74,1.21,2.04-1.18,5.6-3.54,5.57-2.67-1.45-1.44-5.83,1.22-6.31Z"/>
      <path d="M169.26,78.28h-9.23l3.2-3.02,1.22-2.2c1.59,1.86,2.81,3.71,4.81,5.22Z"/>
      <path d="M29.62,168.96c-7.06-1.94-13.25-7.28-15.24-14.44,8.04.52,13.52,7.01,15.24,14.44Z"/>
      <path d="M177.76,39.09c-1.95-12.47.37-21.8-14.83-25.29-3.98-.91-16.72-2.6-18.27,2.35-1.35,4.31,3.06,7.58,4.62,11.3,3.22,7.7-2.01,4.49-6.47,3.66-.42-.08-1.31-.53-1.22.22,13.4,4.26,8.38,14.6,4.6,24.07-2.77,6.95-5.97,13.86-9.42,20.47,3.45-.53,7.13-2.28,10-4.25,1.2-.82,4.02-3.8,5.07-3.78,1.22.03,1.74,3.08,2.25,4.16.57,1.21,1.21,2.61,1.86,3.76.2.35-.14.68.63.47,3.73-1.04,7.48-8.77,8.08-8.77,2.37,2.32,3.12,5.31,5.85,7.38,2.91,2.2,3.05,1.38,4.6-1.75.57-1.15,1.5-5.26,2.79-5.26.44,0,3.93,3.32,4.9,3.96,2.06,1.37,4.34,2.21,6.54,3.29-5.49-11.61-9.58-23.22-11.57-35.98ZM156.91,21.79c-.6.6.05,2.88-2.38,3.44-4.73,1.07-3.51-3.83-4.09-4.13-1.41-.81-3.79,1.14-4.66-.59-2.07-4.11,10.15-3.04,12.36-1.92,3.59,1.83-1.01,2.99-1.23,3.21Z"/>
      <path d="M291.45,172.84c-2.79,2.36-3.76,4.97-5.82,7.83-5.3,3.46-10.25,7.42-15.45,11.04-.32.23-.78,1.08-1.2.4l22.65-23.49c11.4-1.53,21.22-8.78,23.49-20.44-12.12-.71-22.42,6.85-26.08,18.26l-14.85,15.44,8.24-16.84c1.63-1.38,3.68-2.13,5.37-3.46,6.72-5.28,10.1-14.63,8.46-23.04-8.95,1.45-16.31,9.73-17.2,18.71-.19,1.96.17,4.08-.05,5.97-.28,2.51-8.63,20.3-10.36,23.34-1.3,2.28-3.23,3.63-4.69,5.75-.09-2.02.82-8.61,1.79-10.15.27-.43,1.95-1.22,2.64-1.88,7.7-7.39,9.57-17.68,6.21-27.7-6.5,4.01-11.73,11.76-12.43,19.47-.25,2.83.53,5.93.37,8.36-.05.76-2.31,8.71-2.59,9.09l-.39.39c-1.38-1.1-4.17-1.04-5.83-.6-2.35.61-3.65,3.94-6.19,4.25-3.57.43-7.39-2.31-10.03-4.45-.45-.36-1.78-1.54-2.9-2.63-1.44.6-2.91,1.2-4.38,1.86.96.85,2.34,1.93,2.86,2.37,4.53,3.8,11.61,8.52,17.5,5.08,2.91-1.69,2.99-4.71,7.59-3.29,2.8.86,4.76,7.05,1.6,8.08-3.56,1.16-4.7-4.06-6.19-3.82-2.3.38-.35,3.91.55,4.99.58.69,1.38.74,1.6,1.4-4.06-.67-7.66,2.05-9.83,5.22l-1.84-5.79-17.85-11.05c.16-.48.29-.95.39-1.42-1.64.9-3.2,1.93-4.63,3.14l19.91,12.31.55,5.32c-.07.26-3.4,3.73-3.73,3.92-1.93,1.11-5.19-.49-7.18,1.25l-13.11,11.58.2.8,9.03.8c.37.31-4.13,7.56-4.49,8.56-.21.6-.47.48.27,1.06l8.23-2.4v8.43l6.42-5.22c.21.2,1.28,4.84,1.8,5.63.32.48.48.44.82,0l7.75-17.56-1.45-5.46,4.34-7.08c1.01.08,1.57,1.05,2.64,1.56,2.07.98,3.97,1.02,6.1.17,3.11-1.24,2.61-3.91,3.26-4.36.43-.3,2.13-.16,3.13-.48,1.56-.51,3.33-2.4,3.62-4,.16-.85-.1-2.35.18-2.84.07-.13,1.75-1.14,2.32-1.89,2.01-2.68,1.65-6.18-.77-8.48l.35-.76,16.49-11.6c2.95-.6,6.05.05,9-.22,7.6-.7,15.82-6.25,18.26-13.63-8.64-1.68-17.41-1.76-24.48,4.21Z"/>
      <path d="M64.65,190.97c.06.3-.39.26-.59.19-.66-.21-6.88-4.27-7-4.67.47-2.36,1.94-4.45,2.27-6.86,1.11-8.22-5.12-17.68-11.33-22.57-1.29,8.68-1.26,19.58,4.61,26.68l-.59.2c-1.05-1.69-3.7-2.74-4.79-4.04-3.62-4.31-2.25-10.09-3.23-15.23-1.53-8.1-6.11-14.1-12.65-18.85v11.84c0,8.43,4.49,13.58,9.99,18.9.43.42,1.02.58.84,1.37-8.4-5.4-19.77-6.42-28.89-2.21,7.17,6.93,17.39,10.72,27.38,8.93,1.13-.2,4.26-1.5,4.85-1.4,1.14.18,3.76,3.19,5.48,3.12v.59c-.06.57-.51-.2-.6-.2h-7.22c-.69,0-4,.84-4.93,1.09-3.38.92-7.2,2.66-9.71,5.13,7.24,5.48,17.96,6,26.07,2,1.35-.67,3.07-1.71,3.81-3,3.34,1.66.74,2.21.3,4.3"/>
    </g>
  </g>
</svg>