<?xml version="1.0" encoding="UTF-8"?>
<svg id="Layer_2" data-name="Layer 2" xmlns="http://www.w3.org/2000/svg" viewBox="0 0 86.27 324.92">
  <defs>
    <style>
      .cls-1 {
        fill: #010101;
      }
    </style>
  </defs>
  <g id="Layer_1-2" data-name="Layer 1">
    <g>
      <path class="cls-1" d="M16.48,82.05l26.66-18.55,26.66,18.55-9.41-31.09,25.88-19.62-32.47-.66L43.14,0l-10.66,30.68L0,31.34l25.88,19.62-9.41,31.09Z"/>
      <path class="cls-1" d="M43.14,80.96l-10.66,30.68-32.47.66,25.88,19.62-9.41,31.09,26.66-18.55,26.66,18.55-9.41-31.09,25.88-19.62-32.47-.66-10.66-30.68Z"/>
      <path class="cls-1" d="M43.14,161.92l-10.66,30.68-32.47.66,25.88,19.62-9.41,31.09,26.66-18.55,26.66,18.55-9.41-31.09,25.88-19.62-32.47-.66-10.66-30.68Z"/>
      <path class="cls-1" d="M53.8,273.54l-10.66-30.67-10.66,30.68-32.47.66,25.88,19.62-9.41,31.09,26.66-18.55,26.66,18.55-9.41-31.09,25.88-19.62-32.47-.67Z"/>
    </g>
  </g>
</svg>