<?xml version="1.0" encoding="UTF-8"?>
<svg id="Layer_2" data-name="Layer 2" xmlns="http://www.w3.org/2000/svg" viewBox="0 0 310.12 334.57">
  <g id="Layer_1-2" data-name="Layer 1">
    <path d="M156.51,323.71c-.75.82-3.15,2.25-4.22,2.92-2.02,1.26-16.97,8.98-18.08,7.83.73-5.75,3.55-11.34,5.31-16.93,5.91-18.7,10.49-37.91,11.82-57.56.2-2.99.79-8.31.43-11.04-.24-1.86-1.92-2.82-3.69-2.01-1.23.57-6.32,6.47-7.98,7.94-21.83,19.28-54.22,30.64-83.36,25.86l-.53-.41c-1.64-10.06-.13-21.31,2.78-31.06,3.29-11.02,9.07-20.44,17.04-28.67.6-1.17.16-2.93-1.02-3.46-1.47-.66-8.63,1.45-10.86,1.78-21.37,3.14-43.8-5.54-59.14-20.34-2.1-2.02-5.72-5.13-4.9-8.18.71-2.66,9.13-12.57,11.43-15.1,12.92-14.12,27.46-22.74,46.92-24.09,2-.14,11.23,1.18,9.42-2.83-.66-1.45-8.69-6.64-10.61-8.19-20.76-16.71-29.76-42.95-28.77-69.15.08-2-.52-7.07.61-8.37.93-1.08,9.46-1.89,11.42-2.05,24.53-2.04,52.3,3.51,68.98,22.85,1.46,1.7,5.4,8.23,6.95,8.56,2.19.47,2.91-.48,3.07-2.61-11.71-31.97,4.96-64.44,28.95-85.33,4.55-3.96,6.21-5.95,11.44-1.63,22.62,18.66,38.64,49.15,32.45,78.98-.42,2.03-2.66,8-2.04,9.37.57,1.27,2.58,1.7,3.7.85,15.93-24.59,43.67-32.37,71.8-31.04,3.41.16,9.8.57,12.96,1.32,2.87.68,2.99,2.78,3.18,5.39,1.35,18.45-4.45,41.44-14.54,56.92-6.31,9.68-15.41,16.87-24.89,23.27-1.32,1.29-.37,3.39,1.26,3.7,26.03-2.05,49.2,14.03,63.38,34.57,1.53,2.22,3.78,4.52,2.62,7.37-1.16,2.85-9.6,9.65-12.39,11.69-18.08,13.24-39.48,18.13-61.4,12.06-5.73,1.78,1.26,6.87,3.26,9.44,10.75,13.86,16.62,34.03,14.47,51.55-.07.57-.3,1.87-.58,2.28-.74,1.09-5.47,1.57-6.91,1.66-31.8,2.03-62.48-12.04-83.9-34.9h-2.86c-1.06.61-.86,3.73-.83,4.91.54,19,1.59,38.14.44,57.14-.2,3.33-.4,9.97-1.45,12.83-.2.54-.77,1.49-1.16,1.91ZM158.7,171.2c-.07-.63-.43-1.2-.43-1.85-.1-11.69.16-23.69.04-35.51-.36-35.88-1.19-71.81-1.22-107.75-.13-2.57-3.72-3.15-4.34-.61-.17.7.28,1.29.23,1.85-1.11,11.88-.27,24.35-.38,36.35-.34,34.63-.09,69.53-1.26,104.08-.03.79,1.09,6.16-1.39,3.02-2.57-3.26-4.63-6.39-7.57-9.58-26.27-28.56-56.76-52.59-87.14-76.53-1.13-.89-8.85-8.94-8.83-3.46,0,1.22,2.34,3.17,3.3,4.09,11.57,11,25.43,21.2,37.56,31.82,13.15,11.52,26.67,23.72,38.78,36.32,8.8,9.16,28.74,29.53,24.78,43.17-.22.77-.42,1.73-1.32,1.13-1.28-.85-3.09-2.99-4.5-4.08-25.31-19.48-61.21-19.09-91.28-13.35-8.18,1.56-19.86,4.01-27.59,6.7-.55.19-1.65.45-1.93.92-.69,1.57,0,3.48,1.88,3.48,29.32-6.56,60.09-12.98,89.84-4.99,12.37,3.33,30.85,12.11,34.4,25.6.28,1.07,1.22,3.98.23,4.72-3.28-.28-6.22-2.28-9.66-2.64-28.47-2.98-52.27,27.07-68.9,46.09l-.58,1.73,1.05,1.05,1.57-.33c15.39-16.37,44.27-49.1,69.55-41.44,3.41,1.04,6.8,4.13,7.96,7.55.97,2.89-.38,6.81,3.68,6.54,3.73-.25,2.16-4.38,3.4-7.24,3.42-7.9,14.81-8.65,22.14-7.29,13.24,2.46,28.61,15.44,38.35,24.5,6.13,5.71,11.4,12.39,17.75,17.77,1.16-.25,1.87-1.29,1.06-2.28-15.72-19.53-41.29-49.44-69.17-46.66-3.27.33-6.11,1.93-9.24,2.63-1.41-6.17,2.82-12.1,7.14-16.16,18.66-17.52,51.73-19.11,75.92-16.72,13.93,1.37,27.7,4.42,41.25,7.72,4.55-2.97,1.87-4.06-1.78-5.16-24.55-7.43-55.17-11.93-80.57-7.74-15.1,2.49-30.61,8.26-41.36,19.46-1.09.24-1.38-3.71-1.42-4.69-.51-13.45,15.24-29.48,24.06-38.78,10.07-10.62,21.37-21.2,32.25-31.01,14.56-13.13,31.3-25.44,45.31-38.76,1.33-1.27,3.78-2.9,2.48-4.94-1.82-2.28-6.82,3.46-8.41,4.72-20.68,16.43-41.62,32.4-60.81,50.61-10.39,9.86-23.54,22.28-32.44,33.27-.74.92-.99,2.68-2.44,2.65Z"/>
  </g>
</svg>