<?xml version="1.0" encoding="UTF-8"?>
<svg id="Layer_2" data-name="Layer 2" xmlns="http://www.w3.org/2000/svg" viewBox="0 0 206.4 299.55">
  <defs>
    <style>
      .cls-1 {
        fill: #010101;
      }
    </style>
  </defs>
  <g id="Layer_1-2" data-name="Layer 1">
    <g>
      <path class="cls-1" d="M103.2,0S69.14,51.19,0,100.8v56.62s77.4-61.51,103.37-101.93c26.66,40.77,103.03,101.93,103.03,101.93v-56.62C137.25,49.82,103.2,0,103.2,0Z"/>
      <path class="cls-1" d="M103.2,70.17S69.14,121.36,0,170.97v56.62s77.4-61.51,103.37-101.93c26.66,40.76,103.03,101.93,103.03,101.93v-56.62c-69.14-50.98-103.2-100.8-103.2-100.8Z"/>
      <path class="cls-1" d="M103.2,142.14S69.14,193.32,0,242.94v56.61s77.4-61.51,103.37-101.92c26.66,40.76,103.03,101.92,103.03,101.92v-56.61c-69.14-50.98-103.2-100.8-103.2-100.8Z"/>
    </g>
  </g>
</svg>