<?xml version="1.0" encoding="UTF-8"?>
<svg id="Layer_2" data-name="Layer 2" xmlns="http://www.w3.org/2000/svg" viewBox="0 0 216.47 306.57">
  <defs>
    <style>
      .cls-1 {
        fill: #010101;
      }
    </style>
  </defs>
  <g id="Layer_1-2" data-name="Layer 1">
    <path class="cls-1" d="M3.92,100.21c-4.62,3.86-5.25,10.73-1.39,15.36,3.86,4.63,10.73,5.25,15.36,1.39.5-.42.97-.89,1.39-1.39L97.72,37.21l.02,259.01c.32,6.03,5.47,10.66,11.5,10.34,5.58-.3,10.04-4.76,10.34-10.34l-.02-259.01,78.36,78.48c4.3,4.1,11.06,4.1,15.36,0,4.24-4.23,4.25-11.09.02-15.33,0,0-.02-.02-.02-.02L116.21,3.27c-4.08-4.24-10.83-4.37-15.07-.29-.1.09-.19.19-.29.29L3.92,100.21Z"/>
  </g>
</svg>